<?xml version="1.0" standalone="no"?>
<!DOCTYPE svg PUBLIC "-//W3C//DTD SVG 20010904//EN"
 "http://www.w3.org/TR/2001/REC-SVG-20010904/DTD/svg10.dtd">
<svg version="1.0" xmlns="http://www.w3.org/2000/svg"
 width="512.000000pt" height="512.000000pt" viewBox="0 0 512.000000 512.000000"
 preserveAspectRatio="xMidYMid meet">

<g transform="translate(0.000000,512.000000) scale(0.100000,-0.100000)"
fill="#000000" stroke="none">
<path d="M2351 5109 c-615 -55 -1155 -304 -1587 -734 -77 -77 -167 -174 -200
-215 -502 -636 -678 -1443 -484 -2221 234 -935 978 -1665 1910 -1874 213 -48
321 -59 570 -59 252 0 363 11 575 59 962 218 1727 997 1929 1963 42 200 51
296 51 532 0 237 -9 331 -52 535 -201 971 -975 1746 -1959 1964 -214 48 -540
69 -753 50z m874 -671 c3 -3 -115 -230 -262 -503 l-268 -498 -121 -3 c-104 -2
-200 -17 -340 -51 -19 -4 -10 36 115 502 87 323 142 510 151 515 13 7 81 19
255 44 43 6 464 1 470 -6z m440 -105 c161 -55 462 -211 528 -273 8 -7 -922
-800 -938 -800 -3 0 -52 22 -108 50 -92 44 -255 100 -294 100 -8 0 -13 6 -10
13 4 10 263 387 559 815 115 165 88 155 263 95z m-1378 -15 c-3 -13 -42 -234
-87 -492 -44 -258 -83 -473 -86 -478 -3 -4 -38 -25 -77 -45 -99 -49 -158 -88
-255 -167 -60 -49 -82 -62 -82 -49 0 10 -16 215 -36 455 -29 348 -34 441 -24
453 20 24 210 149 302 199 90 49 313 145 337 146 9 0 11 -7 8 -22z m-728 -885
c50 -221 91 -406 91 -410 0 -4 -27 -44 -60 -88 -33 -44 -79 -114 -102 -157
-24 -43 -45 -78 -48 -78 -3 0 -82 153 -175 339 l-169 340 49 73 c97 142 169
234 243 310 42 43 77 77 78 75 1 -1 43 -183 93 -404z m1201 -57 c175 -27 344
-92 497 -191 110 -72 226 -166 216 -175 -9 -8 -235 -162 -853 -584 -239 -164
-437 -304 -439 -313 -1 -9 7 -67 20 -130 l24 -114 50 7 c27 4 58 8 69 8 15 1
45 -54 147 -268 71 -148 127 -272 124 -274 -2 -2 -75 3 -162 13 -202 23 -416
17 -513 -14 -70 -22 -160 -74 -160 -92 0 -31 -133 112 -204 221 -88 133 -146
275 -182 442 -25 115 -25 352 0 468 54 251 168 463 346 640 275 276 660 410
1020 356z m-1554 -471 l206 -276 -26 -82 c-14 -45 -31 -107 -38 -138 l-13 -57
-235 208 c-129 114 -236 213 -238 219 -8 23 118 401 134 401 2 0 97 -124 210
-275z m2489 -266 c35 -217 62 -395 60 -398 -5 -4 -25 -8 -854 -171 -337 -66
-619 -120 -625 -120 -11 0 -53 136 -45 144 28 28 1395 954 1397 948 1 -5 32
-187 67 -403z m-2640 -192 c116 -71 224 -140 240 -152 l31 -23 1 -151 c1 -83
0 -151 -1 -151 -2 0 -119 41 -262 90 -142 50 -260 90 -262 90 -7 0 6 368 14
407 4 21 10 30 18 26 6 -4 105 -65 221 -136z m37 -518 c134 -28 247 -54 252
-59 8 -8 68 -182 63 -186 -1 -1 -119 -5 -263 -9 l-261 -7 -16 59 c-17 60 -47
215 -47 239 0 8 6 14 14 14 8 0 124 -23 258 -51z m1602 -177 c61 -59 156 -144
211 -188 239 -194 389 -405 481 -679 42 -126 43 -157 5 -217 -46 -73 -209
-188 -287 -204 l-29 -5 -317 688 -317 688 47 12 c87 21 87 21 206 -95z m-1206
-232 l50 -89 -226 -121 c-174 -94 -227 -118 -234 -108 -18 27 -72 136 -104
211 -24 55 -30 79 -21 82 19 7 461 114 473 114 7 1 34 -39 62 -89z m957 -236
c77 -8 147 -17 155 -19 14 -5 154 -297 153 -320 0 -16 -124 -235 -133 -235 -4
0 -75 11 -156 25 -362 59 -611 62 -841 8 -20 -5 -11 19 76 222 60 142 108 238
125 255 33 34 138 69 238 80 83 9 181 5 383 -16z"/>
<path d="M2137 3125 c-245 -152 -433 -352 -528 -561 -57 -126 -81 -242 -82
-394 -1 -148 13 -232 64 -384 30 -89 104 -254 132 -291 14 -19 15 -19 56 -1
22 11 41 22 41 26 0 4 -27 54 -60 111 -171 295 -206 586 -105 869 78 217 254
439 486 610 123 91 123 94 -4 15z"/>
<path d="M2089 1240 c-56 -7 -189 -36 -195 -43 -15 -17 -137 -277 -130 -277 1
0 43 56 92 125 l89 126 66 19 c84 25 160 40 213 41 32 0 37 2 21 9 -24 10 -66
10 -156 0z"/>
</g>
</svg>
